<svg width="217" height="52" viewBox="0 0 217 52" fill="none" xmlns="http://www.w3.org/2000/svg">
<path fill-rule="evenodd" clip-rule="evenodd" d="M13.1765 0H38.5026L51.2104 12.954H25.8843L25.7948 13.0459V12.954L13.1776 0.00107222L25.7948 13.0459H0.46875L13.1765 0ZM25.7948 39.046H51.1209L38.5026 52L13.0871 52L0.46875 39.0458V13.0459L25.7054 13.0459L13.1316 25.9541L13.1765 25.9999V26.092L25.7948 39.046ZM38.5026 26.0001L38.4131 25.9999L25.7948 13.0459L51.1209 13.0459L38.5026 26.0001ZM38.5026 26.0001H38.5921L51.2104 38.9541H25.8843L38.5026 26.0001ZM67.3192 30.2263C66.9612 30.5938 66.4243 30.7776 65.7978 30.7776L65.7083 30.8694C64.8134 30.8694 64.0975 30.502 63.7395 29.767C63.3815 28.9401 63.2026 27.8377 63.2026 26.4596V26.0921C63.1131 24.9896 63.292 23.8871 63.7395 22.8765C64.0975 22.0497 64.7239 21.6822 65.7083 21.6822C66.4243 21.6822 66.8717 21.9578 67.2297 22.4172C67.5876 22.9684 67.7666 23.7034 67.7666 24.3465L72.4202 24.2546C72.5097 22.509 71.8832 20.6716 70.6304 19.4773C69.3775 18.2829 67.7666 17.7317 65.7083 17.7317C63.292 17.7317 61.4127 18.4667 60.0703 20.0285C58.728 21.5903 58.1015 23.6115 58.1015 26.0921V26.4596C57.9225 28.6645 58.728 30.7776 60.0703 32.5232C61.4127 33.9931 63.292 34.82 65.7978 34.82C67.5876 34.82 69.288 34.2687 70.6304 33.0744C71.8832 31.9719 72.5992 30.3182 72.5097 28.5726H67.8561C67.8561 29.3076 67.6771 29.8588 67.3192 30.2263ZM81.8168 22.4172H83.6962L84.2331 17.7317C83.6962 17.5479 83.2487 17.5479 82.8012 17.5479C82.0853 17.5479 81.3694 17.8235 80.8324 18.2829C80.206 18.8341 79.7585 19.4772 79.49 20.3041L79.3111 17.8235H74.568V34.4525H79.5795V23.5196C79.7585 23.1522 80.027 22.8765 80.385 22.6928C80.7429 22.509 81.2799 22.4172 81.8168 22.4172ZM93.3613 27.1945L93.2718 27.1027L93.0928 27.0108L90.587 17.7317H85.2175L90.8555 34.5443L90.4975 35.6468C90.3185 36.1062 90.0501 36.4737 89.6921 36.7493C89.3341 37.0249 88.7972 37.1168 87.9918 37.1168L87.7233 37.0249H87.4548L86.8284 40.6998C87.4548 40.8836 87.9023 40.9754 88.1707 40.9754C88.4392 41.0673 88.7972 41.0673 89.2446 41.0673C90.945 41.0673 92.1979 40.6998 93.0033 39.873C93.8087 39.0461 94.4352 38.0355 94.9721 36.8412L101.416 17.8235H96.046L93.3613 27.1945ZM112.065 22.7847C112.512 23.6115 112.691 24.8059 112.691 26.1839L112.602 26.2758V26.5514C112.691 27.6539 112.512 28.6645 112.065 29.6751C111.707 30.4101 111.081 30.7776 110.186 30.7776C109.738 30.7776 109.201 30.6857 108.754 30.502C108.396 30.3182 107.859 29.6751 107.859 29.6751V22.6928C108.038 22.3253 108.396 21.9578 108.754 21.7741C109.112 21.5903 109.649 21.4984 110.186 21.4984C110.991 21.4984 111.707 21.9578 112.065 22.7847ZM116.092 32.4313C117.166 30.9613 117.703 28.9401 117.703 26.4596V26.2758C117.792 24.0709 117.256 21.8659 116.092 20.0285C115.018 18.4667 113.407 17.6398 111.439 17.6398C109.917 17.5479 108.485 18.3748 107.68 19.7529L107.501 17.9154H102.758V40.7917H107.769V32.9825C108.664 34.085 110.007 34.7281 111.439 34.7281C113.318 34.7281 115.018 33.9012 116.092 32.4313ZM125.936 17.8235V13.6893L125.847 13.7811H120.746V17.9154H118.508V21.4984H120.746V29.1239C120.746 31.1451 121.193 32.5232 122.088 33.4419C122.894 34.3606 124.146 34.82 125.847 34.82C126.921 34.82 127.995 34.7281 128.979 34.4525L128.621 30.5938C128.174 30.6857 127.726 30.6857 127.189 30.6857C126.921 30.6857 126.563 30.5938 126.294 30.3182C126.026 30.0426 125.936 29.5832 125.936 29.032V21.4066H128.71V17.8235H125.936ZM135.601 29.5832C135.154 28.7564 134.975 27.6539 134.975 26.2758V25.9083C134.975 24.6221 135.154 23.5196 135.601 22.6928C136.049 21.8659 136.765 21.4984 137.749 21.4984C138.734 21.4984 139.449 21.8659 139.897 22.6928C140.344 23.7034 140.523 24.8059 140.523 25.9083V26.2758C140.523 27.6539 140.344 28.7564 139.897 29.5832C139.449 30.4101 138.734 30.7776 137.749 30.7776C136.765 30.7776 136.049 30.4101 135.601 29.5832ZM132.022 19.9366C130.59 21.5903 129.874 23.7953 129.963 26.0002H129.874V26.3677C129.784 28.5726 130.5 30.7776 131.932 32.4313C133.364 33.9012 135.333 34.7281 137.749 34.7281C140.165 34.7281 142.134 33.9931 143.477 32.4313C144.819 30.8694 145.535 28.8483 145.535 26.3677V26.0002C145.624 23.7953 144.908 21.5903 143.477 19.9366C142.134 18.3748 140.165 17.5479 137.749 17.5479C135.333 17.5479 133.364 18.3748 132.022 19.9366ZM152.522 17.9154L152.515 17.8235L152.694 17.9154H152.522ZM152.522 17.9154H147.951V34.5443H152.963V22.6009C153.5 21.9578 154.305 21.5903 155.111 21.5903C155.916 21.5903 156.453 21.7741 156.811 22.1416C157.169 22.509 157.348 23.244 157.348 24.1628V34.4525H162.359V24.1628C162.359 21.8659 161.912 20.2122 161.017 19.1098C160.122 18.0992 158.869 17.5479 157.258 17.5479C156.363 17.4561 155.468 17.7317 154.663 18.191C153.858 18.6504 153.231 19.2935 152.694 20.1204L152.522 17.9154ZM170.503 22.3253C170.861 21.7741 171.398 21.4984 172.114 21.4984C172.919 21.4984 173.367 21.6822 173.725 22.1416C174.083 22.6009 174.262 23.244 174.262 24.0709V24.4384H169.877C169.966 23.5196 170.145 22.8765 170.503 22.3253ZM166.744 32.4313C168.176 33.9931 170.056 34.7281 172.472 34.7281V34.82C173.725 34.82 174.888 34.6362 176.052 34.2687C177.036 33.9012 178.02 33.4419 178.826 32.8906L177.662 29.767C176.231 30.502 174.709 30.7776 173.188 30.7776C172.293 30.7776 171.487 30.502 170.951 29.9507C170.324 29.3995 170.056 28.6645 169.877 27.7458H179.184V24.9896C179.273 23.0603 178.647 21.0391 177.304 19.5691C176.052 18.191 174.351 17.5479 172.114 17.5479C169.698 17.5479 167.908 18.3748 166.565 19.9366C165.223 21.4984 164.597 23.5196 164.597 26.0921V26.6433C164.507 28.7564 165.313 30.8694 166.744 32.4313ZM195.292 27.4702H195.203H195.113L192.339 17.8235H189.117L186.433 27.4702H186.343L184.553 17.8235H179.9L183.748 34.4525H188.043L190.728 25.6327H190.818L193.502 34.4525H197.798L201.646 17.8235H196.993L195.292 27.4702ZM211.311 28.6645C211.669 29.032 211.938 29.767 211.938 29.767V29.8589C211.938 30.4101 211.759 30.7776 211.401 30.9613C211.043 31.2369 210.506 31.3288 209.879 31.3288C209.074 31.3288 208.448 31.1451 208 30.7776C207.553 30.502 207.284 29.9507 207.284 29.1239L202.72 29.2157C202.72 30.5938 203.347 31.9719 204.599 33.0744C205.852 34.2687 207.553 34.82 209.79 34.82C211.58 34.9118 213.37 34.3606 214.891 33.35C216.233 32.4313 216.86 31.1451 216.86 29.6751C216.949 28.297 216.412 27.1027 215.428 26.2758C214.086 25.3571 212.654 24.8059 211.043 24.5302C210.148 24.4384 209.342 24.1628 208.537 23.7034C208.179 23.4278 207.911 23.0603 207.911 22.6009C207.911 22.1416 208.09 21.7741 208.448 21.4984C208.806 21.131 209.253 21.0391 209.79 21.0391C210.506 21.0391 210.953 21.2228 211.311 21.5903C211.669 21.9578 211.848 22.4172 211.848 23.0603L216.77 22.9684C216.77 21.4066 216.054 19.9366 214.891 19.1098C213.549 18.0992 211.848 17.6398 209.7 17.6398C207.732 17.6398 206.031 18.0992 204.868 19.1098C203.705 19.9366 203.078 21.3147 203.078 22.7847C203.078 24.0709 203.526 25.2652 204.51 26.0921C205.763 27.0108 207.284 27.562 208.806 27.8377C209.7 27.9295 210.506 28.2051 211.311 28.6645Z" fill="#FAFAFA"/>
</svg>